<?xml version="1.0" encoding="utf-8"?>
<svg xmlns="http://www.w3.org/2000/svg" xmlns:xlink="http://www.w3.org/1999/xlink">
    <symbol viewBox="0 0 16 16" class="bi bi-arrow-left" fill="currentColor" id="arrow-left" xmlns="http://www.w3.org/2000/svg"><path fill-rule="evenodd" d="M15 8a.5.5 0 00-.5-.5H2.707l3.147-3.146a.5.5 0 10-.708-.708l-4 4a.5.5 0 000 .708l4 4a.5.5 0 00.708-.708L2.707 8.5H14.5A.5.5 0 0015 8z"/></symbol>
    <symbol viewBox="0 0 16 16" class="bi bi-arrow-right" fill="currentColor" id="arrow-right" xmlns="http://www.w3.org/2000/svg"><path fill-rule="evenodd" d="M1 8a.5.5 0 01.5-.5h11.793l-3.147-3.146a.5.5 0 01.708-.708l4 4a.5.5 0 010 .708l-4 4a.5.5 0 01-.708-.708L13.293 8.5H1.5A.5.5 0 011 8z"/></symbol>
    <symbol viewBox="0 0 16 16" class="bi bi-arrow-up" fill="currentColor" id="arrow-up" xmlns="http://www.w3.org/2000/svg"><path fill-rule="evenodd" d="M8 15a.5.5 0 00.5-.5V2.707l3.146 3.147a.5.5 0 00.708-.708l-4-4a.5.5 0 00-.708 0l-4 4a.5.5 0 10.708.708L7.5 2.707V14.5a.5.5 0 00.5.5z"/></symbol>
    <symbol viewBox="0 0 16 16" class="bi bi-folder" fill="currentColor" id="folder" xmlns="http://www.w3.org/2000/svg"><path d="M9.828 4a3 3 0 01-2.12-.879l-.83-.828A1 1 0 006.173 2H2.5a1 1 0 00-1 .981L1.546 4h-1L.5 3a2 2 0 012-2h3.672a2 2 0 011.414.586l.828.828A2 2 0 009.828 3v1z"/><path fill-rule="evenodd" d="M13.81 4H2.19a1 1 0 00-.996 1.09l.637 7a1 1 0 00.995.91h10.348a1 1 0 00.995-.91l.637-7A1 1 0 0013.81 4zM2.19 3A2 2 0 00.198 5.181l.637 7A2 2 0 002.826 14h10.348a2 2 0 001.991-1.819l.637-7A2 2 0 0013.81 3H2.19z"/></symbol>
    <symbol viewBox="0 0 16 16" class="bi bi-box-arrow-in-down" fill="currentColor" id="box-arrow-in-down" xmlns="http://www.w3.org/2000/svg"><path fill-rule="evenodd" d="M3.5 6a.5.5 0 00-.5.5v8a.5.5 0 00.5.5h9a.5.5 0 00.5-.5v-8a.5.5 0 00-.5-.5h-2a.5.5 0 010-1h2A1.5 1.5 0 0114 6.5v8a1.5 1.5 0 01-1.5 1.5h-9A1.5 1.5 0 012 14.5v-8A1.5 1.5 0 013.5 5h2a.5.5 0 010 1h-2z"/><path fill-rule="evenodd" d="M7.646 11.854a.5.5 0 00.708 0l3-3a.5.5 0 00-.708-.708L8.5 10.293V1.5a.5.5 0 00-1 0v8.793L5.354 8.146a.5.5 0 10-.708.708l3 3z"/></symbol>
    <symbol viewBox="0 0 16 16" class="bi bi-trash" fill="currentColor" id="trash" xmlns="http://www.w3.org/2000/svg"><path d="M5.5 5.5A.5.5 0 016 6v6a.5.5 0 01-1 0V6a.5.5 0 01.5-.5zm2.5 0a.5.5 0 01.5.5v6a.5.5 0 01-1 0V6a.5.5 0 01.5-.5zm3 .5a.5.5 0 00-1 0v6a.5.5 0 001 0V6z"/><path fill-rule="evenodd" d="M14.5 3a1 1 0 01-1 1H13v9a2 2 0 01-2 2H5a2 2 0 01-2-2V4h-.5a1 1 0 01-1-1V2a1 1 0 011-1H6a1 1 0 011-1h2a1 1 0 011 1h3.5a1 1 0 011 1v1zM4.118 4L4 4.059V13a1 1 0 001 1h6a1 1 0 001-1V4.059L11.882 4H4.118zM2.5 3V2h11v1h-11z"/></symbol>
</svg>
